<svg xmlns="http://www.w3.org/2000/svg" xmlns:xlink="http://www.w3.org/1999/xlink" width="500" zoomAndPan="magnify" viewBox="0 0 375 374.999991" height="500" preserveAspectRatio="xMidYMid meet" version="1.0"><defs><g/><clipPath id="910b29dd59"><path d="M 113.761719 81.9375 L 261.511719 81.9375 L 261.511719 229.6875 L 113.761719 229.6875 Z M 113.761719 81.9375 " clip-rule="nonzero"/></clipPath></defs><g clip-path="url(#910b29dd59)"><path fill="#ffffff" d="M 187.496094 81.9375 C 146.832031 81.9375 113.761719 115.007812 113.761719 155.671875 C 113.761719 196.335938 146.832031 229.40625 187.496094 229.40625 C 228.160156 229.40625 261.230469 196.335938 261.230469 155.671875 C 261.230469 115.007812 228.160156 81.9375 187.496094 81.9375 Z M 187.496094 224.234375 C 149.640625 224.234375 118.933594 193.527344 118.933594 155.671875 C 118.933594 117.8125 149.640625 87.109375 187.496094 87.109375 C 225.355469 87.109375 256.058594 117.8125 256.058594 155.671875 C 256.058594 193.527344 225.355469 224.234375 187.496094 224.234375 Z M 187.496094 224.234375 " fill-opacity="1" fill-rule="nonzero"/></g><path fill="#ffffff" d="M 218.75 182.265625 C 223.335938 176.765625 219.960938 173.554688 216.917969 171.242188 C 213.871094 168.933594 206.699219 165.980469 204.5 168.621094 C 202.300781 171.261719 198.777344 174.5625 196.0625 173.847656 C 191.476562 172.636719 185.625 166.457031 181.167969 162 C 176.710938 157.542969 170.53125 151.691406 169.320312 147.105469 C 168.605469 144.390625 171.667969 141.070312 174.546875 138.667969 C 177.425781 136.265625 174.402344 129.550781 171.925781 126.25 C 169.449219 122.949219 166.402344 119.832031 160.902344 124.417969 C 155.398438 129 148.445312 141.199219 161.269531 159.796875 C 164.550781 164.566406 167.375 167.316406 171.613281 171.554688 C 175.851562 175.792969 178.601562 178.617188 183.371094 181.898438 C 201.96875 194.71875 214.167969 187.769531 218.75 182.265625 Z M 218.75 182.265625 " fill-opacity="1" fill-rule="nonzero"/><path fill="#ffffff" d="M 203.34375 158.550781 C 203.023438 158.550781 202.710938 158.492188 202.410156 158.378906 C 202.109375 158.261719 201.839844 158.09375 201.601562 157.878906 C 201.363281 157.660156 201.175781 157.40625 201.03125 157.117188 C 200.890625 156.828125 200.804688 156.523438 200.777344 156.203125 C 200.703125 155.402344 200.5625 154.613281 200.351562 153.835938 C 200.144531 153.058594 199.867188 152.308594 199.527344 151.578125 C 199.1875 150.851562 198.785156 150.15625 198.324219 149.496094 C 197.859375 148.839844 197.34375 148.226562 196.777344 147.65625 C 196.207031 147.085938 195.59375 146.574219 194.9375 146.109375 C 194.277344 145.648438 193.582031 145.246094 192.855469 144.90625 C 192.125 144.566406 191.375 144.289062 190.597656 144.082031 C 189.820312 143.871094 189.03125 143.730469 188.230469 143.65625 C 187.890625 143.625 187.566406 143.53125 187.261719 143.371094 C 186.957031 143.214844 186.695312 143.003906 186.476562 142.738281 C 186.253906 142.476562 186.09375 142.179688 185.992188 141.855469 C 185.890625 141.527344 185.851562 141.191406 185.882812 140.851562 C 185.914062 140.507812 186.007812 140.1875 186.167969 139.882812 C 186.324219 139.578125 186.535156 139.316406 186.800781 139.09375 C 187.0625 138.875 187.359375 138.714844 187.6875 138.609375 C 188.011719 138.507812 188.347656 138.472656 188.6875 138.503906 C 189.789062 138.601562 190.871094 138.796875 191.9375 139.085938 C 193.003906 139.375 194.039062 139.753906 195.039062 140.222656 C 196.039062 140.691406 196.988281 141.242188 197.894531 141.875 C 198.796875 142.511719 199.640625 143.21875 200.421875 144 C 201.203125 144.777344 201.914062 145.621094 202.546875 146.523438 C 203.183594 147.429688 203.734375 148.378906 204.203125 149.378906 C 204.671875 150.378906 205.054688 151.410156 205.34375 152.476562 C 205.632812 153.542969 205.828125 154.625 205.929688 155.726562 C 205.960938 156.070312 205.925781 156.402344 205.824219 156.734375 C 205.71875 157.0625 205.558594 157.359375 205.339844 157.621094 C 205.121094 157.886719 204.859375 158.101562 204.554688 158.261719 C 204.25 158.421875 203.925781 158.519531 203.582031 158.550781 Z M 203.34375 158.550781 " fill-opacity="1" fill-rule="nonzero"/><path fill="#ffffff" d="M 215.375 158.695312 C 215.042969 158.699219 214.722656 158.636719 214.410156 158.511719 C 214.101562 158.386719 213.828125 158.210938 213.585938 157.980469 C 213.34375 157.75 213.15625 157.480469 213.019531 157.175781 C 212.878906 156.871094 212.804688 156.554688 212.789062 156.222656 C 212.753906 155.425781 212.679688 154.636719 212.566406 153.851562 C 212.457031 153.0625 212.308594 152.28125 212.125 151.507812 C 211.945312 150.734375 211.726562 149.972656 211.472656 149.21875 C 211.21875 148.464844 210.929688 147.726562 210.609375 147 C 210.289062 146.273438 209.933594 145.5625 209.546875 144.867188 C 209.160156 144.171875 208.742188 143.5 208.292969 142.84375 C 207.84375 142.1875 207.363281 141.554688 206.855469 140.941406 C 206.347656 140.332031 205.8125 139.746094 205.25 139.183594 C 204.6875 138.621094 204.101562 138.085938 203.492188 137.578125 C 202.878906 137.070312 202.246094 136.589844 201.589844 136.140625 C 200.933594 135.691406 200.261719 135.273438 199.566406 134.886719 C 198.871094 134.5 198.160156 134.144531 197.433594 133.824219 C 196.707031 133.503906 195.96875 133.214844 195.214844 132.960938 C 194.460938 132.707031 193.699219 132.488281 192.925781 132.308594 C 192.152344 132.125 191.371094 131.976562 190.582031 131.867188 C 189.796875 131.753906 189.007812 131.679688 188.210938 131.644531 C 187.871094 131.628906 187.542969 131.546875 187.230469 131.398438 C 186.921875 131.253906 186.648438 131.054688 186.417969 130.800781 C 186.1875 130.546875 186.011719 130.257812 185.898438 129.9375 C 185.78125 129.613281 185.730469 129.28125 185.746094 128.9375 C 185.761719 128.59375 185.84375 128.269531 185.988281 127.957031 C 186.132812 127.644531 186.332031 127.375 186.585938 127.144531 C 186.839844 126.914062 187.128906 126.738281 187.453125 126.621094 C 187.773438 126.503906 188.109375 126.453125 188.449219 126.46875 C 189.402344 126.515625 190.351562 126.605469 191.296875 126.742188 C 192.242188 126.875 193.179688 127.050781 194.109375 127.269531 C 195.035156 127.492188 195.953125 127.753906 196.855469 128.058594 C 197.761719 128.363281 198.648438 128.707031 199.523438 129.09375 C 200.394531 129.480469 201.246094 129.90625 202.078125 130.371094 C 202.914062 130.835938 203.722656 131.339844 204.511719 131.878906 C 205.296875 132.417969 206.058594 132.992188 206.792969 133.601562 C 207.523438 134.210938 208.230469 134.855469 208.902344 135.527344 C 209.578125 136.203125 210.222656 136.90625 210.832031 137.640625 C 211.441406 138.375 212.015625 139.136719 212.554688 139.921875 C 213.09375 140.710938 213.597656 141.519531 214.0625 142.351562 C 214.527344 143.1875 214.953125 144.039062 215.339844 144.910156 C 215.726562 145.785156 216.070312 146.671875 216.375 147.578125 C 216.679688 148.480469 216.941406 149.398438 217.164062 150.324219 C 217.382812 151.253906 217.558594 152.191406 217.691406 153.136719 C 217.828125 154.082031 217.917969 155.03125 217.964844 155.984375 C 217.976562 156.324219 217.925781 156.660156 217.808594 156.980469 C 217.691406 157.304688 217.515625 157.589844 217.285156 157.84375 C 217.050781 158.097656 216.78125 158.296875 216.46875 158.441406 C 216.15625 158.585938 215.828125 158.664062 215.488281 158.679688 Z M 215.375 158.695312 " fill-opacity="1" fill-rule="nonzero"/><g fill="#ffffff" fill-opacity="1"><g transform="translate(66.073888, 284.607435)"><g><path d="M 15.484375 -22.171875 C 13.679688 -22.171875 12.273438 -21.429688 11.265625 -19.953125 C 10.265625 -18.484375 9.765625 -16.457031 9.765625 -13.875 C 9.765625 -8.488281 11.8125 -5.796875 15.90625 -5.796875 C 17.132812 -5.796875 18.328125 -5.96875 19.484375 -6.3125 C 20.648438 -6.65625 21.820312 -7.070312 23 -7.5625 L 23 -1.171875 C 20.664062 -0.140625 18.023438 0.375 15.078125 0.375 C 10.859375 0.375 7.617188 -0.847656 5.359375 -3.296875 C 3.109375 -5.742188 1.984375 -9.28125 1.984375 -13.90625 C 1.984375 -16.800781 2.53125 -19.347656 3.625 -21.546875 C 4.71875 -23.742188 6.285156 -25.429688 8.328125 -26.609375 C 10.378906 -27.785156 12.789062 -28.375 15.5625 -28.375 C 18.582031 -28.375 21.46875 -27.71875 24.21875 -26.40625 L 21.90625 -20.453125 C 20.875 -20.941406 19.84375 -21.347656 18.8125 -21.671875 C 17.78125 -22.003906 16.671875 -22.171875 15.484375 -22.171875 Z M 15.484375 -22.171875 "/></g></g></g><g fill="#ffffff" fill-opacity="1"><g transform="translate(91.498288, 284.607435)"><g><path d="M 23.28125 -10.890625 C 23.28125 -7.335938 22.328125 -4.570312 20.421875 -2.59375 C 18.515625 -0.613281 15.847656 0.375 12.421875 0.375 C 9.128906 0.375 6.507812 -0.632812 4.5625 -2.65625 C 2.613281 -4.6875 1.640625 -7.429688 1.640625 -10.890625 C 1.640625 -14.421875 2.59375 -17.164062 4.5 -19.125 C 6.40625 -21.082031 9.082031 -22.0625 12.53125 -22.0625 C 14.664062 -22.0625 16.546875 -21.609375 18.171875 -20.703125 C 19.804688 -19.796875 21.066406 -18.5 21.953125 -16.8125 C 22.835938 -15.125 23.28125 -13.148438 23.28125 -10.890625 Z M 9.234375 -10.890625 C 9.234375 -9.023438 9.484375 -7.601562 9.984375 -6.625 C 10.484375 -5.65625 11.320312 -5.171875 12.5 -5.171875 C 13.65625 -5.171875 14.472656 -5.65625 14.953125 -6.625 C 15.429688 -7.601562 15.671875 -9.023438 15.671875 -10.890625 C 15.671875 -12.734375 15.425781 -14.128906 14.9375 -15.078125 C 14.457031 -16.023438 13.628906 -16.5 12.453125 -16.5 C 11.304688 -16.5 10.484375 -16.03125 9.984375 -15.09375 C 9.484375 -14.15625 9.234375 -12.753906 9.234375 -10.890625 Z M 9.234375 -10.890625 "/></g></g></g><g fill="#ffffff" fill-opacity="1"><g transform="translate(116.463555, 284.607435)"><g><path d="M 16.265625 0 L 16.265625 -11.828125 C 16.265625 -13.265625 16.054688 -14.347656 15.640625 -15.078125 C 15.222656 -15.816406 14.554688 -16.1875 13.640625 -16.1875 C 12.378906 -16.1875 11.46875 -15.679688 10.90625 -14.671875 C 10.34375 -13.671875 10.0625 -11.941406 10.0625 -9.484375 L 10.0625 0 L 2.578125 0 L 2.578125 -21.671875 L 8.234375 -21.671875 L 9.171875 -19 L 9.609375 -19 C 10.242188 -20.019531 11.125 -20.785156 12.25 -21.296875 C 13.382812 -21.804688 14.6875 -22.0625 16.15625 -22.0625 C 18.550781 -22.0625 20.414062 -21.363281 21.75 -19.96875 C 23.082031 -18.582031 23.75 -16.628906 23.75 -14.109375 L 23.75 0 Z M 16.265625 0 "/></g></g></g><g fill="#ffffff" fill-opacity="1"><g transform="translate(142.710565, 284.607435)"><g><path d="M 13.203125 -5.53125 C 14.210938 -5.53125 15.414062 -5.78125 16.8125 -6.28125 L 16.8125 -0.828125 C 15.8125 -0.390625 14.851562 -0.0820312 13.9375 0.09375 C 13.03125 0.28125 11.960938 0.375 10.734375 0.375 C 8.222656 0.375 6.410156 -0.238281 5.296875 -1.46875 C 4.191406 -2.695312 3.640625 -4.585938 3.640625 -7.140625 L 3.640625 -16.078125 L 1.015625 -16.078125 L 1.015625 -19.109375 L 4.34375 -21.46875 L 6.28125 -26.015625 L 11.171875 -26.015625 L 11.171875 -21.671875 L 16.5 -21.671875 L 16.5 -16.078125 L 11.171875 -16.078125 L 11.171875 -7.640625 C 11.171875 -6.234375 11.847656 -5.53125 13.203125 -5.53125 Z M 13.203125 -5.53125 "/></g></g></g><g fill="#ffffff" fill-opacity="1"><g transform="translate(160.73147, 284.607435)"><g><path d="M 16.71875 0 L 15.28125 -2.875 L 15.140625 -2.875 C 14.128906 -1.625 13.097656 -0.769531 12.046875 -0.3125 C 11.003906 0.144531 9.65625 0.375 8 0.375 C 5.957031 0.375 4.347656 -0.234375 3.171875 -1.453125 C 2.003906 -2.679688 1.421875 -4.40625 1.421875 -6.625 C 1.421875 -8.925781 2.222656 -10.640625 3.828125 -11.765625 C 5.429688 -12.898438 7.757812 -13.539062 10.8125 -13.6875 L 14.421875 -13.796875 L 14.421875 -14.109375 C 14.421875 -15.890625 13.539062 -16.78125 11.78125 -16.78125 C 10.207031 -16.78125 8.203125 -16.242188 5.765625 -15.171875 L 3.59375 -20.109375 C 6.125 -21.410156 9.316406 -22.0625 13.171875 -22.0625 C 15.941406 -22.0625 18.085938 -21.367188 19.609375 -19.984375 C 21.140625 -18.609375 21.90625 -16.6875 21.90625 -14.21875 L 21.90625 0 Z M 11.171875 -4.90625 C 12.078125 -4.90625 12.851562 -5.191406 13.5 -5.765625 C 14.144531 -6.335938 14.46875 -7.082031 14.46875 -8 L 14.46875 -9.6875 L 12.75 -9.609375 C 10.28125 -9.515625 9.046875 -8.609375 9.046875 -6.890625 C 9.046875 -5.566406 9.753906 -4.90625 11.171875 -4.90625 Z M 11.171875 -4.90625 "/></g></g></g><g fill="#ffffff" fill-opacity="1"><g transform="translate(185.141954, 284.607435)"><g><path d="M 12.453125 0.375 C 8.910156 0.375 6.222656 -0.578125 4.390625 -2.484375 C 2.554688 -4.398438 1.640625 -7.148438 1.640625 -10.734375 C 1.640625 -14.328125 2.628906 -17.113281 4.609375 -19.09375 C 6.585938 -21.070312 9.398438 -22.0625 13.046875 -22.0625 C 15.554688 -22.0625 17.925781 -21.515625 20.15625 -20.421875 L 17.953125 -14.890625 C 17.046875 -15.285156 16.207031 -15.597656 15.4375 -15.828125 C 14.675781 -16.066406 13.878906 -16.1875 13.046875 -16.1875 C 11.835938 -16.1875 10.898438 -15.710938 10.234375 -14.765625 C 9.566406 -13.828125 9.234375 -12.492188 9.234375 -10.765625 C 9.234375 -7.296875 10.519531 -5.5625 13.09375 -5.5625 C 15.28125 -5.5625 17.382812 -6.203125 19.40625 -7.484375 L 19.40625 -1.53125 C 17.476562 -0.257812 15.160156 0.375 12.453125 0.375 Z M 12.453125 0.375 "/></g></g></g><g fill="#ffffff" fill-opacity="1"><g transform="translate(206.261997, 284.607435)"><g><path d="M 13.203125 -5.53125 C 14.210938 -5.53125 15.414062 -5.78125 16.8125 -6.28125 L 16.8125 -0.828125 C 15.8125 -0.390625 14.851562 -0.0820312 13.9375 0.09375 C 13.03125 0.28125 11.960938 0.375 10.734375 0.375 C 8.222656 0.375 6.410156 -0.238281 5.296875 -1.46875 C 4.191406 -2.695312 3.640625 -4.585938 3.640625 -7.140625 L 3.640625 -16.078125 L 1.015625 -16.078125 L 1.015625 -19.109375 L 4.34375 -21.46875 L 6.28125 -26.015625 L 11.171875 -26.015625 L 11.171875 -21.671875 L 16.5 -21.671875 L 16.5 -16.078125 L 11.171875 -16.078125 L 11.171875 -7.640625 C 11.171875 -6.234375 11.847656 -5.53125 13.203125 -5.53125 Z M 13.203125 -5.53125 "/></g></g></g><g fill="#ffffff" fill-opacity="1"><g transform="translate(224.282902, 284.607435)"><g/></g></g><g fill="#ffffff" fill-opacity="1"><g transform="translate(234.460314, 284.607435)"><g><path d="M 3.015625 0 L 3.015625 -27.96875 L 10.578125 -27.96875 L 10.578125 -6.109375 L 21.359375 -6.109375 L 21.359375 0 Z M 3.015625 0 "/></g></g></g><g fill="#ffffff" fill-opacity="1"><g transform="translate(257.263838, 284.607435)"><g><path d="M 10.109375 0 L 2.625 0 L 2.625 -21.671875 L 10.109375 -21.671875 Z M 2.4375 -27.078125 C 2.4375 -28.203125 2.75 -29.035156 3.375 -29.578125 C 4 -30.128906 5.003906 -30.40625 6.390625 -30.40625 C 7.785156 -30.40625 8.800781 -30.125 9.4375 -29.5625 C 10.070312 -29 10.390625 -28.171875 10.390625 -27.078125 C 10.390625 -24.878906 9.054688 -23.78125 6.390625 -23.78125 C 3.753906 -23.78125 2.4375 -24.878906 2.4375 -27.078125 Z M 2.4375 -27.078125 "/></g></g></g><g fill="#ffffff" fill-opacity="1"><g transform="translate(270.004733, 284.607435)"><g><path d="M 19.328125 -6.65625 C 19.328125 -4.332031 18.535156 -2.578125 16.953125 -1.390625 C 15.367188 -0.210938 13.097656 0.375 10.140625 0.375 C 8.535156 0.375 7.140625 0.285156 5.953125 0.109375 C 4.765625 -0.0546875 3.550781 -0.367188 2.3125 -0.828125 L 2.3125 -6.8125 C 3.476562 -6.300781 4.75 -5.878906 6.125 -5.546875 C 7.507812 -5.210938 8.742188 -5.046875 9.828125 -5.046875 C 11.453125 -5.046875 12.265625 -5.414062 12.265625 -6.15625 C 12.265625 -6.539062 12.035156 -6.882812 11.578125 -7.1875 C 11.128906 -7.488281 9.816406 -8.070312 7.640625 -8.9375 C 5.648438 -9.75 4.257812 -10.675781 3.46875 -11.71875 C 2.675781 -12.757812 2.28125 -14.078125 2.28125 -15.671875 C 2.28125 -17.679688 3.054688 -19.25 4.609375 -20.375 C 6.171875 -21.5 8.375 -22.0625 11.21875 -22.0625 C 12.644531 -22.0625 13.984375 -21.90625 15.234375 -21.59375 C 16.492188 -21.28125 17.800781 -20.820312 19.15625 -20.21875 L 17.125 -15.40625 C 16.132812 -15.851562 15.082031 -16.234375 13.96875 -16.546875 C 12.851562 -16.859375 11.945312 -17.015625 11.25 -17.015625 C 10.03125 -17.015625 9.421875 -16.710938 9.421875 -16.109375 C 9.421875 -15.742188 9.632812 -15.425781 10.0625 -15.15625 C 10.488281 -14.894531 11.71875 -14.363281 13.75 -13.5625 C 15.269531 -12.9375 16.40625 -12.320312 17.15625 -11.71875 C 17.90625 -11.125 18.453125 -10.421875 18.796875 -9.609375 C 19.148438 -8.804688 19.328125 -7.820312 19.328125 -6.65625 Z M 19.328125 -6.65625 "/></g></g></g><g fill="#ffffff" fill-opacity="1"><g transform="translate(290.89521, 284.607435)"><g><path d="M 13.203125 -5.53125 C 14.210938 -5.53125 15.414062 -5.78125 16.8125 -6.28125 L 16.8125 -0.828125 C 15.8125 -0.390625 14.851562 -0.0820312 13.9375 0.09375 C 13.03125 0.28125 11.960938 0.375 10.734375 0.375 C 8.222656 0.375 6.410156 -0.238281 5.296875 -1.46875 C 4.191406 -2.695312 3.640625 -4.585938 3.640625 -7.140625 L 3.640625 -16.078125 L 1.015625 -16.078125 L 1.015625 -19.109375 L 4.34375 -21.46875 L 6.28125 -26.015625 L 11.171875 -26.015625 L 11.171875 -21.671875 L 16.5 -21.671875 L 16.5 -16.078125 L 11.171875 -16.078125 L 11.171875 -7.640625 C 11.171875 -6.234375 11.847656 -5.53125 13.203125 -5.53125 Z M 13.203125 -5.53125 "/></g></g></g></svg>